<?xml version="1.0" encoding="UTF-8"?>
<svg version="1.1" xmlns="http://www.w3.org/2000/svg" width="1024" height="1024">
<path d="M0 0 C8.62548384 0.8386296 17.25509876 0.67685281 25.9120121 0.64157104 C29.1349669 0.62861192 32.35787962 0.62224041 35.58085632 0.61743164 C43.59962122 0.60417233 51.6183468 0.58022683 59.63708496 0.55603027 C112.88473585 0.39817211 112.88473585 0.39817211 138.88598633 1.56640625 C140.29998718 1.62785072 140.29998718 1.62785072 141.74255371 1.6905365 C152.07302973 2.14139567 152.07302973 2.14139567 154.88598633 2.56640625 C155.21598633 3.22640625 155.54598633 3.88640625 155.88598633 4.56640625 C158.42485391 5.5162623 160.91981928 6.35063237 163.51098633 7.12890625 C164.21094727 7.34998047 164.9109082 7.57105469 165.63208008 7.79882812 C170.04456485 9.15368198 174.30142023 10.03093856 178.88598633 10.56640625 C178.88598633 11.55640625 178.88598633 12.54640625 178.88598633 13.56640625 C180.17762695 13.94925781 180.17762695 13.94925781 181.49536133 14.33984375 C191.34361264 17.90246001 199.9788605 24.85898227 207.88598633 31.56640625 C208.9146582 32.39398438 208.9146582 32.39398438 209.96411133 33.23828125 C222.59415873 43.68044643 237.73314991 63.14283798 240.41723633 79.87890625 C240.57192383 80.76578125 240.72661133 81.65265625 240.88598633 82.56640625 C241.54598633 82.89640625 242.20598633 83.22640625 242.88598633 83.56640625 C249.07693066 102.57701192 247.51440037 123.71240792 247.52625847 143.43844938 C247.53355914 148.69304585 247.56322184 153.947528 247.58959961 159.20205688 C247.63711466 169.43660045 247.66254777 179.67108279 247.67924368 189.90571868 C247.69302692 198.21034628 247.71447565 206.51492212 247.74081421 214.81951904 C247.84905913 249.40183013 247.8871261 283.98393557 247.88598633 318.56640625 C247.88606752 321.0149587 247.8861489 323.46351115 247.88623047 325.9120636 C247.8860415 357.10420249 247.83812808 388.29593682 247.72947413 419.4878881 C247.70386903 427.01438016 247.6870324 434.54086039 247.67349243 442.06738281 C247.6565064 451.22592064 247.62440151 460.38426566 247.57334769 469.54267919 C247.54763477 474.18942661 247.52757057 478.83598476 247.52444458 483.48280716 C247.49454409 515.17358095 245.30266977 549.88057654 223.01098633 575.00390625 C221.11257548 577.15823033 219.29575788 579.31195798 217.51098633 581.56640625 C214.24262283 585.30167882 210.71595665 588.41925073 206.88598633 591.56640625 C205.93594727 592.35402344 204.9859082 593.14164063 204.00708008 593.953125 C193.74215001 602.27048224 182.80479046 608.36660764 170.38598633 612.87890625 C169.75917969 613.10932617 169.13237305 613.33974609 168.48657227 613.57714844 C155.16813661 618.1325752 142.2292486 619.00193756 128.30213928 618.9271698 C126.46603033 618.92848072 124.62992194 618.93111239 122.79381651 618.9349373 C117.78813788 618.941598 112.78265435 618.92971093 107.77700055 618.91460311 C102.36412608 618.9015828 96.95126159 618.90603643 91.53837585 618.90830994 C82.17337016 618.9098789 72.80842743 618.90050924 63.44343758 618.88359642 C49.90343628 618.85915968 36.36346526 618.85139637 22.8234443 618.84763245 C0.85281933 618.84107529 -21.11777212 618.82113411 -43.08837891 618.79272461 C-64.42399102 618.76516498 -85.75958916 618.74394072 -107.09521484 618.73120117 C-108.41152604 618.730413 -109.72783723 618.72962483 -111.08403664 618.72881278 C-117.68793656 618.72489751 -124.29183655 618.72110642 -130.89573658 618.71737707 C-185.63518541 618.68630407 -240.37459793 618.63348833 -295.11401367 618.56640625 C-295.44401367 617.90640625 -295.77401367 617.24640625 -296.11401367 616.56640625 C-298.69418209 615.62093358 -301.23421589 614.78404873 -303.86401367 614.00390625 C-304.9390918 613.67229492 -304.9390918 613.67229492 -306.03588867 613.33398438 C-309.70465754 612.21784237 -313.33081555 611.22921065 -317.11401367 610.56640625 C-317.11401367 609.90640625 -317.11401367 609.24640625 -317.11401367 608.56640625 C-317.97639648 608.30988281 -318.8387793 608.05335938 -319.72729492 607.7890625 C-340.21875628 600.39133769 -356.30097662 582.14909064 -368.11401367 564.56640625 C-369.21422852 562.96732422 -369.21422852 562.96732422 -370.33666992 561.3359375 C-372.11401367 558.56640625 -372.11401367 558.56640625 -373.11401367 555.56640625 C-373.78841932 553.99820999 -374.47693397 552.43603526 -375.17651367 550.87890625 C-375.71985352 549.66654297 -375.71985352 549.66654297 -376.27416992 548.4296875 C-376.55131836 547.81480469 -376.8284668 547.19992187 -377.11401367 546.56640625 C-377.77401367 546.56640625 -378.43401367 546.56640625 -379.11401367 546.56640625 C-379.77401367 544.91640625 -380.43401367 543.26640625 -381.11401367 541.56640625 C-380.45401367 541.23640625 -379.79401367 540.90640625 -379.11401367 540.56640625 C-379.53925183 538.95894569 -379.97971493 537.35550789 -380.42651367 535.75390625 C-380.67014648 534.86058594 -380.9137793 533.96726562 -381.16479492 533.046875 C-382.14788683 530.47788997 -383.19644386 529.45119709 -385.11401367 527.56640625 C-384.84005983 525.55741138 -384.49691829 523.55751026 -384.11401367 521.56640625 C-384.44234647 519.23236402 -384.77650583 516.89913941 -385.11401367 514.56640625 C-385.2253012 511.80290513 -385.29668116 509.06177205 -385.31735229 506.2980957 C-385.32705075 505.48773424 -385.33674921 504.67737278 -385.34674156 503.84245491 C-385.37789135 501.12156084 -385.40210579 498.40065411 -385.42602539 495.6796875 C-385.4464723 493.70084884 -385.46717733 491.72201283 -385.48811722 489.74317932 C-385.54403579 484.28108776 -385.59261266 478.81895361 -385.63897943 473.35677338 C-385.66893916 469.85105857 -385.70041527 466.34535986 -385.7321434 462.83966064 C-386.28692474 400.69019519 -386.26716857 338.53924983 -386.24347553 276.38784075 C-386.23892809 264.22095964 -386.23985025 252.05408802 -386.24438477 239.88720703 C-386.24975088 225.48372113 -386.25184192 211.08024076 -386.2487725 196.676754 C-386.24845413 195.14267731 -386.24813976 193.60860062 -386.24782944 192.07452393 C-386.24767516 191.32098971 -386.24752089 190.5674555 -386.24736194 189.79108691 C-386.24650887 184.55593398 -386.24793136 179.32078469 -386.25030899 174.08563232 C-386.25312656 167.74929357 -386.25232428 161.41296718 -386.24702825 155.07662982 C-386.24443006 151.86550178 -386.24387367 148.65439819 -386.2466774 145.44326973 C-386.2772447 106.87178725 -386.2772447 106.87178725 -383.17651367 92.12890625 C-383.00700195 91.24654297 -382.83749023 90.36417969 -382.6628418 89.45507812 C-381.86767863 85.47321541 -381.01023341 82.17225914 -379.11401367 78.56640625 C-378.56011557 77.28069527 -378.01742759 75.99010633 -377.48510742 74.6953125 C-371.06906359 59.42509459 -362.57340879 47.46519536 -351.11401367 35.56640625 C-350.52104492 34.91027344 -349.92807617 34.25414062 -349.31713867 33.578125 C-337.07431179 20.39587329 -318.12876578 10.64283779 -300.92529297 6.01074219 C-299.30845732 5.57522243 -297.70881512 5.07674271 -296.11401367 4.56640625 C-295.78401367 3.90640625 -295.45401367 3.24640625 -295.11401367 2.56640625 C-293.35057617 2.59734375 -293.35057617 2.59734375 -291.55151367 2.62890625 C-288.89560772 2.67550109 -286.50377947 2.47504465 -283.86475086 2.0799408 C-277.78100785 1.24698129 -271.67640345 1.17473248 -265.54443359 1.0078125 C-264.79886652 0.98675508 -264.05329945 0.96569767 -263.28513944 0.94400215 C-240.52238455 0.32079967 -217.75011946 0.45682533 -194.98112893 0.49794388 C-188.59754521 0.50808319 -182.21395809 0.5114646 -175.83036804 0.51538086 C-165.15090463 0.52264989 -154.47144967 0.53272 -143.79199219 0.54589844 C-143.1200606 0.54672625 -142.44812901 0.54755406 -141.75583585 0.54840696 C-137.66468029 0.55346766 -133.57352484 0.55862006 -129.48236942 0.56380272 C-123.29358499 0.57164018 -117.10480044 0.57938132 -110.91601562 0.58691406 C-109.89711899 0.58815625 -109.89711899 0.58815625 -108.85763858 0.58942354 C-97.52472944 0.60311614 -86.191821 0.61282563 -74.85890549 0.61982441 C-67.28682783 0.62479146 -59.71477714 0.63462409 -52.14271033 0.64825439 C-47.44972126 0.65571369 -42.75673588 0.65902907 -38.06374168 0.66122055 C-35.89173028 0.66309104 -33.71971957 0.66668896 -31.54771423 0.67215347 C-28.58117484 0.67938276 -25.61469432 0.68040672 -22.64814758 0.67993164 C-21.7926245 0.6835266 -20.93710142 0.68712156 -20.05565339 0.69082546 C-13.35414228 0.67934844 -6.63080566 -0.83891307 0 0 Z " fill="#33276E" transform="translate(581.114013671875,205.43359375)"/>
<path d="M0 0 C1.05912598 0.30695801 1.05912598 0.30695801 2.13964844 0.62011719 C20.15226345 5.97824944 37.29868037 13.6611769 53 24 C53.57911133 24.37705078 54.15822266 24.75410156 54.75488281 25.14257812 C73.48253779 37.47466068 90.00013066 54.08382371 102 73 C102.60908203 73.95302002 102.60908203 73.95302002 103.23046875 74.92529297 C124.30005499 108.25575767 131.1582885 145.32289661 131.14526367 184.28710938 C131.14826199 186.09369983 131.15166606 187.90028966 131.15544128 189.70687866 C131.16420896 194.57406139 131.16661609 199.4412265 131.16725707 204.30841637 C131.16797077 207.35234635 131.17011093 210.39627192 131.17275429 213.44020081 C131.18197797 224.06658205 131.1860922 234.69295082 131.18530273 245.31933594 C131.18470011 255.21757911 131.19529567 265.11576811 131.2110464 275.01399755 C131.22411105 283.52807035 131.22948721 292.04212539 131.22884732 300.55620813 C131.22859237 305.635041 131.23144314 310.71382546 131.24202538 315.79264832 C131.25169025 320.55993273 131.25179666 325.32712223 131.24450874 330.09440994 C131.24346147 331.8435594 131.24583424 333.59271473 131.2518692 335.3418541 C131.25957073 337.72829981 131.25495693 340.11441603 131.24723816 342.50085449 C131.25238172 343.19335721 131.25752529 343.88585994 131.26282471 344.59934759 C131.22640158 349.69107443 130.34746372 353.21051805 127.28381348 357.27915955 C124.22434597 359.5844509 122.26969518 359.51324631 118.45898438 359.53344727 C117.81133621 359.54206284 117.16368805 359.55067841 116.49641418 359.55955505 C114.36178291 359.58220458 112.22846547 359.57547982 110.09375 359.56640625 C108.60688894 359.57164209 107.12003121 359.57791843 105.63317871 359.58518982 C102.51945345 359.59559182 99.40618525 359.59103555 96.29248047 359.57641602 C92.30392775 359.55922091 88.31681463 359.58273109 84.32842255 359.61790562 C81.25883455 359.63987438 78.18959139 359.63843975 75.11994934 359.6301403 C73.64954549 359.62932061 72.17911637 359.63618766 70.70878601 359.65091133 C68.65196417 359.66835198 66.59773356 359.65382641 64.54101562 359.63110352 C63.37171509 359.63014175 62.20241455 359.62917999 60.99768066 359.62818909 C58 359 58 359 55.62530518 356.69110107 C53.49924523 353.17087466 53.3974692 350.07333704 53.390625 346.07421875 C53.37408875 345.32662796 53.35755249 344.57903717 53.34051514 343.80879211 C53.29216077 341.43494348 53.27069364 339.06173478 53.25 336.6875 C53.22182957 335.07223365 53.19190063 333.45699694 53.16015625 331.84179688 C53.08640605 327.89458398 53.03675543 323.94772369 53 320 C52.22293701 320.66241699 51.44587402 321.32483398 50.64526367 322.00732422 C45.07378531 326.72537013 39.57098771 331.33105576 33.3125 335.125 C32.31259033 335.73746582 32.31259033 335.73746582 31.29248047 336.36230469 C-7.75859915 359.77291225 -54.68296192 365.5598719 -98.71289062 355.05004883 C-122.57103892 349.00750473 -144.44620701 338.94572956 -164 324 C-164.86882812 323.34386719 -165.73765625 322.68773437 -166.6328125 322.01171875 C-204.75493938 292.4088453 -230.01686987 249.09599595 -236.25 201.125 C-241.50644755 152.61167198 -231.93131563 102.7606326 -201 64 C-191.30328243 52.1222999 -181.09148732 41.4886876 -169 32 C-168.07445312 31.2575 -167.14890625 30.515 -166.1953125 29.75 C-158.84827735 24.01572866 -151.13974934 19.40016853 -142.93457031 15.03466797 C-141.18204026 14.09736076 -139.44544483 13.13040916 -137.7109375 12.16015625 C-96.83747136 -9.76830916 -44.11880826 -12.7963643 0 0 Z " fill="#FEFEFE" transform="translate(563,335)"/>
<path d="M0 0 C19.10446961 15.18698005 33.18235664 34.88308076 38.96875 58.7734375 C39.14390137 59.44793945 39.31905273 60.12244141 39.49951172 60.81738281 C41.35248883 68.73509946 41.36626993 76.68650817 41.34375 84.7734375 C41.34320618 85.50576599 41.34266235 86.23809448 41.34210205 86.99261475 C41.24338444 115.89160258 31.4111353 141.98951782 10.96875 162.7734375 C-5.83570842 179.08032801 -25.31923723 187.48623263 -48.03125 191.7734375 C-49.01996094 191.969375 -50.00867188 192.1653125 -51.02734375 192.3671875 C-76.87021428 195.8621921 -105.00457482 188.82194145 -126.29296875 173.87109375 C-130.7930085 170.42384504 -134.93847503 166.69032462 -139.03125 162.7734375 C-139.78019531 162.09925781 -140.52914063 161.42507813 -141.30078125 160.73046875 C-158.71085545 144.47903347 -168.92068925 119.43323283 -170.19238281 95.77587891 C-170.62970006 62.96182993 -164.72501212 35.31085828 -142.03125 10.7734375 C-141.04705078 9.66742188 -141.04705078 9.66742188 -140.04296875 8.5390625 C-103.86926936 -30.19080836 -41.13509629 -30.21521248 0 0 Z " fill="#31266B" transform="translate(574.03125,425.2265625)"/>
<path d="M0 0 C9.33647092 0.91513867 18.70755395 0.6717866 28.078125 0.62890625 C29.99869675 0.62388027 31.91926977 0.61931931 33.83984375 0.61523438 C38.50263618 0.60431792 43.16536619 0.58711405 47.828125 0.56640625 C47.828125 0.89640625 47.828125 1.22640625 47.828125 1.56640625 C58.57639789 2.48770032 69.25849569 2.77162965 80.0390625 2.8828125 C81.74541659 2.90344267 83.45176627 2.92444043 85.15811157 2.94578552 C89.59993872 3.0003815 94.04180706 3.05006008 98.48370361 3.09863281 C103.03604701 3.1493109 107.58833229 3.20475257 112.140625 3.25976562 C121.03640842 3.36658025 129.9322428 3.46818794 138.828125 3.56640625 C138.498125 4.22640625 138.168125 4.88640625 137.828125 5.56640625 C-69.081875 5.07140625 -69.081875 5.07140625 -280.171875 4.56640625 C-280.171875 4.23640625 -280.171875 3.90640625 -280.171875 3.56640625 C-279.11310402 3.55094505 -279.11310402 3.55094505 -278.03294373 3.53517151 C-271.31227476 3.43633566 -264.59167251 3.33371631 -257.87112331 3.22706699 C-254.41777102 3.17239283 -250.96440994 3.11907556 -247.51098633 3.0690918 C-243.52157325 3.01128612 -239.53228171 2.94716053 -235.54296875 2.8828125 C-234.32983505 2.86610001 -233.11670135 2.84938751 -231.86680603 2.83216858 C-223.27247543 2.68691218 -214.7413815 2.20734461 -206.171875 1.56640625 C-206.171875 1.23640625 -206.171875 0.90640625 -206.171875 0.56640625 C-205.18457901 0.56732804 -204.19728302 0.56824984 -203.18006897 0.56919956 C-179.15143048 0.59140406 -155.12279332 0.60783438 -131.09414673 0.61821842 C-119.47405635 0.6233736 -107.85397275 0.6304015 -96.23388672 0.6418457 C-86.10523887 0.65181628 -75.97659593 0.65826534 -65.84794331 0.66049474 C-60.48546554 0.66179781 -55.12300182 0.66485816 -49.76052856 0.67213631 C-44.7110855 0.67893394 -39.66166225 0.68101558 -34.61221504 0.67951393 C-32.76113337 0.67978857 -30.91005102 0.68177146 -29.05897331 0.68561172 C-26.52627058 0.69060746 -23.99364205 0.68938292 -21.4609375 0.68666077 C-20.73328721 0.68957361 -20.00563692 0.69248645 -19.25593662 0.69548756 C-12.79458437 0.67679471 -6.41230374 -0.80309556 0 0 Z " fill="#3E3086" transform="translate(581.171875,205.43359375)"/>
<path d="M0 0 C2.31411568 2.8262029 3.58309359 5.28054767 4.6875 8.75 C9.36685862 21.99346778 15.96226933 33.29853732 25 44 C25.75410156 44.90621094 26.50820312 45.81242188 27.28515625 46.74609375 C45.69482834 68.07793602 73.23819135 80.34244937 101 83 C106.86942235 83.3433596 112.75124787 83.28623649 118.62838745 83.2784729 C120.37288899 83.2834858 122.11738821 83.28936448 123.86188424 83.29602563 C128.61892644 83.31171937 133.37590942 83.31525041 138.13297439 83.31667423 C143.27662421 83.32038698 148.42024224 83.33555169 153.56387329 83.34928894 C162.46341489 83.37150696 171.3629451 83.38655299 180.26250839 83.39665604 C193.1296032 83.41127362 205.9966583 83.43681903 218.86372973 83.46498732 C239.74231319 83.51039946 260.62090238 83.54703728 281.49951172 83.578125 C301.77491258 83.60833342 322.05029943 83.64269421 342.32568359 83.68261719 C344.20197361 83.68630951 344.20197361 83.68630951 346.11616848 83.69007643 C352.39168966 83.70245147 358.66721068 83.71490792 364.94273162 83.72740483 C416.9618015 83.83088907 468.98088888 83.92011983 521 84 C521 84.33 521 84.66 521 85 C377.12 85 233.24 85 85 85 C84.67 84.34 84.34 83.68 84 83 C81.41983158 82.05452733 78.87979779 81.21764248 76.25 80.4375 C75.53328125 80.21642578 74.8165625 79.99535156 74.078125 79.76757812 C70.40935613 78.65143612 66.78319812 77.6628044 63 77 C63 76.34 63 75.68 63 75 C62.13761719 74.74347656 61.27523437 74.48695313 60.38671875 74.22265625 C39.89525739 66.82493144 23.81303705 48.58268439 12 31 C11.26652344 29.93394531 10.53304687 28.86789062 9.77734375 27.76953125 C8 25 8 25 7 22 C6.32559435 20.43180374 5.6370797 18.86962901 4.9375 17.3125 C4.57527344 16.50425781 4.21304688 15.69601562 3.83984375 14.86328125 C3.56269531 14.24839844 3.28554687 13.63351562 3 13 C2.34 13 1.68 13 1 13 C0.34 11.35 -0.32 9.7 -1 8 C-0.34 7.67 0.32 7.34 1 7 C0.67 4.69 0.34 2.38 0 0 Z " fill="#010012" transform="translate(201,739)"/>
<path d="M0 0 C0.33 0 0.66 0 1 0 C2.64715838 21.18428689 -7.38982503 46.31281145 -20.4296875 62.80859375 C-20.90664063 63.34613281 -21.38359375 63.88367188 -21.875 64.4375 C-23.77341085 66.59182408 -25.59022845 68.74555173 -27.375 71 C-30.6433635 74.73527257 -34.17002968 77.85284448 -38 81 C-38.95003906 81.78761719 -39.90007812 82.57523438 -40.87890625 83.38671875 C-51.14383632 91.70407599 -62.08119587 97.80020139 -74.5 102.3125 C-75.44020996 102.65812988 -75.44020996 102.65812988 -76.39941406 103.01074219 C-89.30634145 107.425417 -101.81120442 108.42822268 -115.30834961 108.2487793 C-116.9854097 108.23804068 -118.66247902 108.22867175 -120.33955383 108.22055054 C-124.84284198 108.19493797 -129.34575919 108.15043558 -133.84885478 108.10225272 C-138.57327494 108.05501007 -143.29780717 108.02553955 -148.02235413 107.99409485 C-156.94680815 107.93204227 -165.87105128 107.85426215 -174.79532677 107.77067453 C-184.9646785 107.67620265 -195.13414076 107.59950254 -205.30364978 107.52421319 C-226.20261439 107.36909506 -247.1013431 107.19192547 -268 107 C-267.505 106.01 -267.505 106.01 -267 105 C-266.10547119 104.99576806 -265.21094238 104.99153612 -264.28930664 104.98717594 C-242.51384096 104.88382826 -220.73840731 104.77518435 -198.96299744 104.66066074 C-188.43253674 104.60540524 -177.90207266 104.55193596 -167.37158203 104.50268555 C-158.19219252 104.4597496 -149.01282719 104.4134481 -139.83347511 104.36312145 C-134.97403356 104.33659621 -130.11459658 104.31174529 -125.25512695 104.29092598 C-120.67842706 104.27126492 -116.10177284 104.24709353 -111.52511406 104.21950912 C-109.84819816 104.21018863 -108.17127227 104.20249567 -106.4943409 104.19658089 C-104.19808202 104.18823404 -101.90193151 104.17393474 -99.60571289 104.15821838 C-97.68100914 104.14853956 -97.68100914 104.14853956 -95.71742249 104.1386652 C-91.74636581 103.99053908 -87.93378615 103.54700384 -84 103 C-84 102.34 -84 101.68 -84 101 C-80.7 100.67 -77.4 100.34 -74 100 C-74 99.34 -74 98.68 -74 98 C-72.948125 97.814375 -71.89625 97.62875 -70.8125 97.4375 C-47.26427663 91.37517279 -27.2569326 69.90345936 -15 50 C-6.14951129 34.38259869 -2.93150591 17.50184438 0 0 Z " fill="#2E255D" transform="translate(826,716)"/>
<path d="M0 0 C27.12499438 -0.03072499 54.24999065 -0.05100701 81.375 -0.0625 C82.37095845 -0.0629343 83.3669169 -0.06336861 84.39305592 -0.06381607 C182.96168478 -0.10564992 182.96168478 -0.10564992 229.875 0.5 C230.80225639 0.51195782 231.72951279 0.52391563 232.68486786 0.53623581 C243.1235503 0.67239104 253.56191521 0.82355689 264 1 C263.67 1.66 263.34 2.32 263 3 C230.52328844 3.02281801 198.04657919 3.04051248 165.56986144 3.05106533 C161.73472532 3.05231602 157.89958922 3.05361034 154.06445312 3.05493164 C152.91920478 3.05532511 152.91920478 3.05532511 151.7508201 3.05572652 C139.39222357 3.06007651 127.03363169 3.06796039 114.67503792 3.0771528 C101.9917404 3.08650796 89.30844531 3.09205956 76.62514448 3.09408849 C68.80039021 3.09545984 60.9756491 3.09978947 53.15089887 3.10791647 C47.14847356 3.11383276 41.14605955 3.11445423 35.14363098 3.11310768 C32.68300292 3.11338284 30.22237436 3.11537256 27.76174927 3.11920547 C24.40140991 3.12418322 21.0411268 3.12298317 17.68078613 3.12025452 C16.22161608 3.12462378 16.22161608 3.12462378 14.73296785 3.12908131 C9.39544443 3.11737311 4.28171771 2.78055523 -1 2 C-0.67 1.34 -0.34 0.68 0 0 Z " fill="#2E255E" transform="translate(295,820)"/>
<path d="M0 0 C0.33 0 0.66 0 1 0 C2.64715838 21.18428689 -7.38982503 46.31281145 -20.4296875 62.80859375 C-20.90664063 63.34613281 -21.38359375 63.88367188 -21.875 64.4375 C-23.77341085 66.59182408 -25.59022845 68.74555173 -27.375 71 C-30.6433635 74.73527257 -34.17002968 77.85284448 -38 81 C-38.95003906 81.78761719 -39.90007813 82.57523438 -40.87890625 83.38671875 C-57.8642287 97.14940332 -79.76462981 107.83556715 -102 107 C-102 106.67 -102 106.34 -102 106 C-93.09 104.515 -93.09 104.515 -84 103 C-84 102.34 -84 101.68 -84 101 C-79.05 100.505 -79.05 100.505 -74 100 C-74 99.34 -74 98.68 -74 98 C-72.948125 97.814375 -71.89625 97.62875 -70.8125 97.4375 C-47.26427663 91.37517279 -27.2569326 69.90345936 -15 50 C-6.14951129 34.38259869 -2.93150591 17.50184438 0 0 Z " fill="#130D29" transform="translate(826,716)"/>
<path d="M0 0 C2.31411568 2.8262029 3.58309359 5.28054767 4.6875 8.75 C9.36685862 21.99346778 15.96226933 33.29853732 25 44 C25.75410156 44.90621094 26.50820312 45.81242188 27.28515625 46.74609375 C45.98112779 68.40967982 73.05064473 79.77180699 101 83 C101 83.66 101 84.32 101 85 C95.72 85 90.44 85 85 85 C84.67 84.34 84.34 83.68 84 83 C81.41983158 82.05452733 78.87979779 81.21764248 76.25 80.4375 C75.53328125 80.21642578 74.8165625 79.99535156 74.078125 79.76757812 C70.40935613 78.65143612 66.78319812 77.6628044 63 77 C63 76.34 63 75.68 63 75 C62.13761719 74.74347656 61.27523437 74.48695313 60.38671875 74.22265625 C39.89525739 66.82493144 23.81303705 48.58268439 12 31 C11.26652344 29.93394531 10.53304687 28.86789062 9.77734375 27.76953125 C8 25 8 25 7 22 C6.32559435 20.43180374 5.6370797 18.86962901 4.9375 17.3125 C4.57527344 16.50425781 4.21304688 15.69601562 3.83984375 14.86328125 C3.56269531 14.24839844 3.28554687 13.63351562 3 13 C2.34 13 1.68 13 1 13 C0.34 11.35 -0.32 9.7 -1 8 C-0.34 7.67 0.32 7.34 1 7 C0.67 4.69 0.34 2.38 0 0 Z " fill="#16102F" transform="translate(201,739)"/>
<path d="M0 0 C0.01458252 1.03930664 0.02916504 2.07861328 0.04418945 3.14941406 C0.10223181 7.01125215 0.1794638 10.87251076 0.26245117 14.73388672 C0.2956727 16.40403833 0.32371334 18.07430146 0.34643555 19.74462891 C0.38003334 22.14794363 0.43234946 24.55023899 0.48828125 26.953125 C0.49467117 27.69806213 0.5010611 28.44299927 0.50764465 29.21051025 C0.62772137 33.45947277 0.88054683 36.03063677 4 39 C7.08500864 39.5827937 7.08500864 39.5827937 10.67456055 39.45410156 C11.347995 39.45468567 12.02142944 39.45526978 12.715271 39.45587158 C14.93961264 39.45308639 17.16261147 39.42197713 19.38671875 39.390625 C20.92942065 39.38316408 22.47213203 39.37747044 24.0148468 39.37347412 C28.07408848 39.35820584 32.13275711 39.31891445 36.19177246 39.2746582 C40.33414965 39.23373083 44.4766195 39.21546857 48.61914062 39.1953125 C56.74635665 39.15242072 64.87310703 39.0841557 73 39 C73 39.99 73 40.98 73 42 C64.220326 42.09275026 55.44082108 42.16379012 46.66076374 42.20724869 C42.58364346 42.22810852 38.50685878 42.25639619 34.42993164 42.30175781 C30.49417518 42.34527382 26.55874118 42.36914918 22.62276268 42.37950897 C21.12244784 42.38689011 19.62215031 42.40130403 18.12197304 42.42292023 C16.01753469 42.45203262 13.91442233 42.45595302 11.80981445 42.45410156 C10.61290482 42.46298401 9.41599518 42.47186646 8.18281555 42.48101807 C4.36624272 41.90422043 2.74351634 40.6558393 0 38 C-2.38785405 34.60535056 -2.30678242 31.34226799 -2.4140625 27.265625 C-2.45273437 25.97011719 -2.49140625 24.67460938 -2.53125 23.33984375 C-2.56270267 21.97656716 -2.59395007 20.61328582 -2.625 19.25 C-2.66320469 17.87106972 -2.70225787 16.49216266 -2.7421875 15.11328125 C-2.83648004 11.74232282 -2.9220822 8.37137022 -3 5 C-3.66 4.67 -4.32 4.34 -5 4 C-1.125 0 -1.125 0 0 0 Z " fill="#1C1932" transform="translate(617,654)"/>
<path d="M0 0 C-0.64437012 0.32162109 -1.28874023 0.64324219 -1.95263672 0.97460938 C-4.93302441 2.4709401 -7.90389807 3.98532058 -10.875 5.5 C-11.88820313 6.0053125 -12.90140625 6.510625 -13.9453125 7.03125 C-21.00254395 10.65034305 -26.99319225 14.83408992 -33 20 C-33.93972656 20.77988281 -34.87945312 21.55976563 -35.84765625 22.36328125 C-51.92866887 36.51570682 -62.54228596 54.7177622 -69 75 C-70.125 73.25 -70.125 73.25 -71 71 C-70.15649414 69.10131836 -70.15649414 69.10131836 -69 67 C-68.4461019 65.71428902 -67.90341392 64.42370008 -67.37109375 63.12890625 C-60.95504992 47.85868834 -52.45939512 35.89878911 -41 24 C-40.40703125 23.34386719 -39.8140625 22.68773437 -39.203125 22.01171875 C-31.6029814 13.82839581 -21.662439 8.16568355 -11.9375 2.875 C-11.21127441 2.4723291 -10.48504883 2.0696582 -9.73681641 1.65478516 C-6.02907424 -0.30200639 -4.00878878 -1.35117781 0 0 Z " fill="#221A52" transform="translate(271,217)"/>
<path d="M0 0 C0.33 0 0.66 0 1 0 C1.00586624 1.05805847 1.01173248 2.11611694 1.01777649 3.20623779 C1.07544061 13.26599244 1.14842189 23.32553991 1.23571491 33.38508224 C1.28009995 38.55455666 1.3194225 43.723958 1.34643555 48.89355469 C1.37279124 53.89933809 1.41341042 58.90483524 1.46318626 63.91043854 C1.47964018 65.80297484 1.49128601 67.6955604 1.49761391 69.58815765 C1.54033594 81.21092324 2.39156044 92.32338689 4.36174011 103.78448486 C4.9360718 107.22342704 5.13171659 110.50522782 5 114 C2.4375 111.875 2.4375 111.875 0 109 C0.25 106.125 0.25 106.125 1 103 C0.67224593 100.66587643 0.33783771 98.33268541 0 96 C-0.16619992 92.97781975 -0.19408274 89.95742952 -0.22119141 86.93115234 C-0.2326973 86.0505867 -0.24420319 85.17002106 -0.25605774 84.26277161 C-0.29255119 81.37052804 -0.32231659 78.47826276 -0.3515625 75.5859375 C-0.37469853 73.56767493 -0.39808901 71.54941526 -0.42172241 69.53115845 C-0.47006248 65.30986176 -0.51500997 61.08854581 -0.55761719 56.8671875 C-0.61252161 51.45894921 -0.67636199 46.0508592 -0.74279213 40.64275169 C-0.79287655 36.47866575 -0.83799357 32.3145372 -0.88163376 28.15037918 C-0.9031774 26.15607554 -0.92632129 24.16178851 -0.9510994 22.16752243 C-0.98501486 19.38172652 -1.01218259 16.59594328 -1.03759766 13.81005859 C-1.04897263 12.98811508 -1.0603476 12.16617157 -1.07206726 11.31932068 C-1.10081854 7.40084019 -0.97702655 3.82716166 0 0 Z " fill="#040113" transform="translate(196,624)"/>
<path d="M0 0 C0.99 0.495 0.99 0.495 2 1 C-15.64990929 15.98050991 -39.08156224 29.45778289 -63 28 C-63 27.67 -63 27.34 -63 27 C-54.09 25.515 -54.09 25.515 -45 24 C-45 23.34 -45 22.68 -45 22 C-41.7 21.67 -38.4 21.34 -35 21 C-35 20.34 -35 19.68 -35 19 C-33.948125 18.814375 -32.89625 18.62875 -31.8125 18.4375 C-19.9017594 15.40224976 -9.69588755 7.22467183 0 0 Z " fill="#181231" transform="translate(787,795)"/>
<path d="M0 0 C0.66 0.33 1.32 0.66 2 1 C1.5153125 1.35191406 1.030625 1.70382813 0.53125 2.06640625 C-12.54880205 11.70036766 -24.23050364 23.01231661 -34 36 C-34 31.94201229 -31.97429285 29.92718512 -29.5625 26.875 C-29.10657471 26.29387451 -28.65064941 25.71274902 -28.1809082 25.11401367 C-20.63608785 15.64536228 -11.00469598 5.50234799 0 0 Z " fill="#443594" transform="translate(250,227)"/>
<path d="M0 0 C0 0.33 0 0.66 0 1 C-20.07317969 1.84029343 -39.95810209 2.655378 -60 1 C-60 0.67 -60 0.34 -60 0 C-39.96920122 -1.61167347 -20.04977007 -0.76426536 0 0 Z " fill="#22185E" transform="translate(688,207)"/>
<path d="M0 0 C-0.64437012 0.32162109 -1.28874023 0.64324219 -1.95263672 0.97460938 C-4.93302441 2.4709401 -7.90389807 3.98532058 -10.875 5.5 C-11.88820313 6.0053125 -12.90140625 6.510625 -13.9453125 7.03125 C-20.24385616 10.26127239 -25.60655926 13.82080935 -30.94580078 18.47851562 C-33 20 -33 20 -36 20 C-29.28304794 12.61135274 -20.81828343 7.73272251 -12.125 3 C-11.38733398 2.58975586 -10.64966797 2.17951172 -9.88964844 1.75683594 C-9.18614258 1.38333008 -8.48263672 1.00982422 -7.7578125 0.625 C-7.1302002 0.28726563 -6.50258789 -0.05046875 -5.85595703 -0.3984375 C-3.55474442 -1.14431857 -2.25640081 -0.76898639 0 0 Z " fill="#261D5C" transform="translate(271,217)"/>
<path d="M0 0 C4.93961571 0.35204388 9.86005003 0.26348314 14.80834961 0.12475586 C18.61960843 0.0616833 20.25000324 0.07812716 23.5078125 2.25 C18.93628325 2.27485982 14.36479403 2.29293526 9.79321289 2.30493164 C8.24047154 2.30993684 6.68773484 2.31674301 5.13500977 2.32543945 C2.89338018 2.33767307 0.65181332 2.34326657 -1.58984375 2.34765625 C-2.61840233 2.35539818 -2.61840233 2.35539818 -3.66773987 2.36329651 C-8.05610571 2.3637986 -12.17620595 1.95910669 -16.4921875 1.25 C-16.4921875 0.92 -16.4921875 0.59 -16.4921875 0.25 C-10.76953091 -0.74045979 -5.76434747 -0.58970307 0 0 Z " fill="#3D3279" transform="translate(584.4921875,205.75)"/>
<path d="M0 0 C0.54527344 0.26941406 1.09054687 0.53882813 1.65234375 0.81640625 C0.85570312 1.60144531 0.0590625 2.38648438 -0.76171875 3.1953125 C-6.18505519 8.56397132 -11.50963055 13.90326373 -16.34765625 19.81640625 C-16.34765625 14.16680158 -13.20450642 10.27095604 -9.36914062 6.33007812 C-8.64694336 5.61174805 -8.64694336 5.61174805 -7.91015625 4.87890625 C-7.43255859 4.37294922 -6.95496094 3.86699219 -6.46289062 3.34570312 C-2.90918001 -0.22750659 -2.90918001 -0.22750659 0 0 Z " fill="#282055" transform="translate(442.34765625,428.18359375)"/>
<path d="M0 0 C2.12493141 -0.02693575 4.24995912 -0.04636628 6.375 -0.0625 C7.55835938 -0.07410156 8.74171875 -0.08570313 9.9609375 -0.09765625 C13 0 13 0 15 1 C15 1.66 15 2.32 15 3 C12.39740876 3.53010201 9.793443 4.04937795 7.1875 4.5625 C6.44951172 4.71396484 5.71152344 4.86542969 4.95117188 5.02148438 C-0.66015625 6.11328125 -0.66015625 6.11328125 -4 5 C-4.33 4.34 -4.66 3.68 -5 3 C-3.35 2.34 -1.7 1.68 0 1 C0 0.67 0 0.34 0 0 Z " fill="#44368F" transform="translate(286,208)"/>
<path d="M0 0 C2.38296604 2.90129481 3.69233664 5.50927689 4.875 9.0625 C6.89911104 14.88378058 9.37113649 20.42982608 12 26 C11.34 26.66 10.68 27.32 10 28 C7.0204239 25.53861105 6.67749941 23.72624678 6 20 C5.08519234 17.62150008 4.0484013 15.32471593 3 13 C2.34 13 1.68 13 1 13 C0.34 11.35 -0.32 9.7 -1 8 C-0.34 7.67 0.32 7.34 1 7 C0.67 4.69 0.34 2.38 0 0 Z " fill="#1C1536" transform="translate(201,739)"/>
<path d="M0 0 C0.66 0 1.32 0 2 0 C2.5073957 3.20720862 3.004579 6.41592163 3.5 9.625 C3.64308594 10.52863281 3.78617188 11.43226563 3.93359375 12.36328125 C4.63734167 16.95439866 5.18584778 21.33831815 5 26 C2.4375 23.875 2.4375 23.875 0 21 C0.25 18.125 0.25 18.125 1 15 C0.69699525 12.66253478 0.36141955 10.32914823 0 8 C-0.08458866 5.32605843 -0.04695204 2.67626637 0 0 Z " fill="#1A1435" transform="translate(196,712)"/>
<path d="M0 0 C4.85874416 3.61821373 8.41063697 7.60553845 11.875 12.5625 C12.2680835 13.11639404 12.66116699 13.67028809 13.06616211 14.2409668 C15.25103848 17.45480928 16.55284269 20.12704076 17 24 C14.35346653 20.82415984 11.96482899 17.52838762 9.625 14.125 C7.41331058 10.92449911 5.14049892 7.91319972 2.5625 5 C0 2 0 2 0 0 Z " fill="#1E164C" transform="translate(796,245)"/>
<path d="M0 0 C0.60328125 0.08378906 1.2065625 0.16757813 1.828125 0.25390625 C3.02695312 0.40666016 3.02695312 0.40666016 4.25 0.5625 C5.03890625 0.66691406 5.8278125 0.77132812 6.640625 0.87890625 C9.00532874 1.00027349 10.7511037 0.69633257 13 0 C13 1.32 13 2.64 13 4 C13.66 4.66 14.32 5.32 15 6 C9.45949887 5.43174347 4.96284034 3.37113483 0 1 C0 0.67 0 0.34 0 0 Z " fill="#3F3288" transform="translate(747,216)"/>
<path d="M0 0 C3.51455198 0.66358674 6.13808087 2.09523645 9.1875 3.9375 C10.50814453 4.72447266 10.50814453 4.72447266 11.85546875 5.52734375 C14 7 14 7 15 9 C9.26800429 7.53025751 4.66416601 4.55513098 0 1 C0 0.67 0 0.34 0 0 Z " fill="#231B5A" transform="translate(765,222)"/>
<path d="M0 0 C3.96 0.33 7.92 0.66 12 1 C12 1.33 12 1.66 12 2 C2.58997722 4.29612756 2.58997722 4.29612756 -2 4 C-1.34 2.68 -0.68 1.36 0 0 Z " fill="#312669" transform="translate(286,208)"/>
<path d="M0 0 C0.33 1.32 0.66 2.64 1 4 C-1.31 5.32 -3.62 6.64 -6 8 C-6.66 7.34 -7.32 6.68 -8 6 C-5.36 4.02 -2.72 2.04 0 0 Z " fill="#1B1637" transform="translate(605,663)"/>
<path d="M0 0 C1.65 0 3.3 0 5 0 C4.2890625 1.953125 4.2890625 1.953125 3 4 C0.8359375 4.609375 0.8359375 4.609375 -1.625 4.75 C-2.44226563 4.80671875 -3.25953125 4.8634375 -4.1015625 4.921875 C-4.72804688 4.94765625 -5.35453125 4.9734375 -6 5 C-3 3 -3 3 0 3 C0 2.01 0 1.02 0 0 Z " fill="#1E174C" transform="translate(470,328)"/>
<path d="M0 0 C0.99 0.33 1.98 0.66 3 1 C2.01 1.99 1.02 2.98 0 4 C0 2.68 0 1.36 0 0 Z " fill="#4B3E86" transform="translate(208,264)"/>
<path d="M0 0 C0.33 0.99 0.66 1.98 1 3 C0.01 3.495 0.01 3.495 -1 4 C-0.67 2.68 -0.34 1.36 0 0 Z " fill="#483B81" transform="translate(201,281)"/>
<path d="M0 0 C1.32 0.33 2.64 0.66 4 1 C2.68 1.33 1.36 1.66 0 2 C0 1.34 0 0.68 0 0 Z " fill="#4E408C" transform="translate(261,216)"/>
<path d="M0 0 C0.33 0 0.66 0 1 0 C1 1.65 1 3.3 1 5 C0.67 5 0.34 5 0 5 C0 3.35 0 1.7 0 0 Z " fill="#392F61" transform="translate(194,714)"/>
<path d="M0 0 C0.66 0.33 1.32 0.66 2 1 C1.01 1 0.02 1 -1 1 C-0.67 0.67 -0.34 0.34 0 0 Z " fill="#362C5B" transform="translate(280,822)"/>
<path d="M0 0 C1 4 1 4 1 4 Z " fill="#44387B" transform="translate(829,312)"/>
<path d="M0 0 C0.66 0.66 1.32 1.32 2 2 C1.34 2 0.68 2 0 2 C0 1.34 0 0.68 0 0 Z " fill="#362D5C" transform="translate(216,776)"/>
<path d="" fill="#46397D" transform="translate(0,0)"/>
<path d="M0 0 C0.99 0.495 0.99 0.495 2 1 C1.01 1.495 1.01 1.495 0 2 C0 1.34 0 0.68 0 0 Z " fill="#4F408A" transform="translate(244,226)"/>
<path d="M0 0 C2 1 2 1 2 1 Z " fill="#342B58" transform="translate(734,823)"/>
<path d="M0 0 C2 1 2 1 2 1 Z " fill="#362B5A" transform="translate(745,821)"/>
<path d="M0 0 C2 1 2 1 2 1 Z " fill="#372D5B" transform="translate(258,813)"/>
<path d="" fill="#352D58" transform="translate(0,0)"/>
<path d="" fill="#362C5C" transform="translate(0,0)"/>
<path d="" fill="#362D5E" transform="translate(0,0)"/>
<path d="" fill="#3A2D5E" transform="translate(0,0)"/>
<path d="" fill="#3A2F61" transform="translate(0,0)"/>
<path d="" fill="#372E60" transform="translate(0,0)"/>
<path d="" fill="#3A3065" transform="translate(0,0)"/>
<path d="M0 0 C2 1 2 1 2 1 Z " fill="#3B3068" transform="translate(193,563)"/>
<path d="" fill="#3E3271" transform="translate(0,0)"/>
<path d="" fill="#463A7E" transform="translate(0,0)"/>
<path d="" fill="#463A7C" transform="translate(0,0)"/>
<path d="" fill="#473A7C" transform="translate(0,0)"/>
<path d="M0 0 C2 1 2 1 2 1 Z " fill="#483B7E" transform="translate(200,272)"/>
<path d="" fill="#493D86" transform="translate(0,0)"/>
<path d="M0 0 C2 1 2 1 2 1 Z " fill="#4E3F87" transform="translate(778,227)"/>
<path d="M0 0 C2 1 2 1 2 1 Z " fill="#4C3E86" transform="translate(248,224)"/>
<path d="M0 0 C2 1 2 1 2 1 Z " fill="#4D418B" transform="translate(256,219)"/>
<path d="" fill="#44404C" transform="translate(0,0)"/>
<path d="" fill="#362D58" transform="translate(0,0)"/>
<path d="" fill="#362B58" transform="translate(0,0)"/>
<path d="" fill="#362C5A" transform="translate(0,0)"/>
<path d="" fill="#362E5C" transform="translate(0,0)"/>
<path d="" fill="#342D59" transform="translate(0,0)"/>
<path d="" fill="#362B55" transform="translate(0,0)"/>
<path d="" fill="#342A5A" transform="translate(0,0)"/>
<path d="" fill="#372C5A" transform="translate(0,0)"/>
<path d="" fill="#352C5A" transform="translate(0,0)"/>
<path d="" fill="#362D5A" transform="translate(0,0)"/>
<path d="" fill="#362C5A" transform="translate(0,0)"/>
<path d="" fill="#362B5C" transform="translate(0,0)"/>
<path d="" fill="#382C60" transform="translate(0,0)"/>
<path d="" fill="#362C5F" transform="translate(0,0)"/>
<path d="" fill="#382F5C" transform="translate(0,0)"/>
<path d="" fill="#352A5C" transform="translate(0,0)"/>
<path d="" fill="#352D5C" transform="translate(0,0)"/>
<path d="" fill="#3B305F" transform="translate(0,0)"/>
<path d="" fill="#3A2D60" transform="translate(0,0)"/>
<path d="" fill="#382C5C" transform="translate(0,0)"/>
<path d="" fill="#372D5D" transform="translate(0,0)"/>
<path d="" fill="#38305C" transform="translate(0,0)"/>
<path d="" fill="#382E5B" transform="translate(0,0)"/>
<path d="" fill="#382E5D" transform="translate(0,0)"/>
<path d="" fill="#372D5E" transform="translate(0,0)"/>
<path d="" fill="#382E5C" transform="translate(0,0)"/>
<path d="" fill="#372D5E" transform="translate(0,0)"/>
<path d="" fill="#382E5E" transform="translate(0,0)"/>
<path d="" fill="#372E5D" transform="translate(0,0)"/>
<path d="" fill="#392F5D" transform="translate(0,0)"/>
<path d="" fill="#372E60" transform="translate(0,0)"/>
<path d="" fill="#3A2E5D" transform="translate(0,0)"/>
<path d="" fill="#3B305B" transform="translate(0,0)"/>
<path d="" fill="#382E5C" transform="translate(0,0)"/>
<path d="" fill="#372F5D" transform="translate(0,0)"/>
<path d="" fill="#382E5C" transform="translate(0,0)"/>
<path d="" fill="#382D5C" transform="translate(0,0)"/>
<path d="" fill="#3A2F60" transform="translate(0,0)"/>
<path d="" fill="#372F5D" transform="translate(0,0)"/>
<path d="" fill="#382F5F" transform="translate(0,0)"/>
<path d="" fill="#382E5C" transform="translate(0,0)"/>
<path d="" fill="#392F5F" transform="translate(0,0)"/>
<path d="" fill="#362E5E" transform="translate(0,0)"/>
<path d="" fill="#393061" transform="translate(0,0)"/>
<path d="" fill="#3A2F61" transform="translate(0,0)"/>
<path d="" fill="#392F63" transform="translate(0,0)"/>
<path d="" fill="#393067" transform="translate(0,0)"/>
<path d="" fill="#3C2F68" transform="translate(0,0)"/>
<path d="" fill="#392F65" transform="translate(0,0)"/>
<path d="" fill="#3A3067" transform="translate(0,0)"/>
<path d="" fill="#3D3167" transform="translate(0,0)"/>
<path d="" fill="#3B3068" transform="translate(0,0)"/>
<path d="" fill="#392E68" transform="translate(0,0)"/>
<path d="" fill="#3D3068" transform="translate(0,0)"/>
<path d="" fill="#3D316D" transform="translate(0,0)"/>
<path d="" fill="#3C326D" transform="translate(0,0)"/>
<path d="" fill="#3B2F6B" transform="translate(0,0)"/>
<path d="" fill="#3D316C" transform="translate(0,0)"/>
<path d="" fill="#3B306C" transform="translate(0,0)"/>
<path d="" fill="#3D316E" transform="translate(0,0)"/>
<path d="" fill="#3D3270" transform="translate(0,0)"/>
<path d="" fill="#3B316E" transform="translate(0,0)"/>
<path d="" fill="#3F336D" transform="translate(0,0)"/>
<path d="" fill="#3C326E" transform="translate(0,0)"/>
<path d="" fill="#3F3273" transform="translate(0,0)"/>
<path d="" fill="#44377C" transform="translate(0,0)"/>
<path d="" fill="#44387C" transform="translate(0,0)"/>
<path d="" fill="#493B7F" transform="translate(0,0)"/>
<path d="" fill="#47397D" transform="translate(0,0)"/>
<path d="" fill="#463B80" transform="translate(0,0)"/>
<path d="" fill="#493B80" transform="translate(0,0)"/>
<path d="" fill="#47397E" transform="translate(0,0)"/>
<path d="" fill="#4A3B7D" transform="translate(0,0)"/>
<path d="" fill="#4A3C83" transform="translate(0,0)"/>
<path d="" fill="#4A3A7E" transform="translate(0,0)"/>
<path d="" fill="#4A3B80" transform="translate(0,0)"/>
<path d="" fill="#4A3D83" transform="translate(0,0)"/>
<path d="" fill="#44367D" transform="translate(0,0)"/>
<path d="" fill="#4C3F83" transform="translate(0,0)"/>
<path d="" fill="#4C4086" transform="translate(0,0)"/>
<path d="" fill="#493D82" transform="translate(0,0)"/>
<path d="" fill="#493C86" transform="translate(0,0)"/>
<path d="" fill="#493E86" transform="translate(0,0)"/>
<path d="" fill="#483B83" transform="translate(0,0)"/>
<path d="" fill="#4D3E86" transform="translate(0,0)"/>
<path d="" fill="#4B3D82" transform="translate(0,0)"/>
<path d="" fill="#4A3F84" transform="translate(0,0)"/>
<path d="" fill="#4C3E83" transform="translate(0,0)"/>
<path d="" fill="#4C3E84" transform="translate(0,0)"/>
<path d="" fill="#4B3D85" transform="translate(0,0)"/>
<path d="" fill="#4C3E87" transform="translate(0,0)"/>
<path d="" fill="#4B3B84" transform="translate(0,0)"/>
<path d="" fill="#4C3F88" transform="translate(0,0)"/>
<path d="" fill="#4A3E88" transform="translate(0,0)"/>
<path d="" fill="#4B3F86" transform="translate(0,0)"/>
<path d="" fill="#4C3D88" transform="translate(0,0)"/>
<path d="" fill="#4C3F8A" transform="translate(0,0)"/>
<path d="" fill="#4E428B" transform="translate(0,0)"/>
<path d="" fill="#4B3E87" transform="translate(0,0)"/>
<path d="" fill="#4B3E87" transform="translate(0,0)"/>
<path d="" fill="#4E4087" transform="translate(0,0)"/>
<path d="" fill="#4D4089" transform="translate(0,0)"/>
<path d="" fill="#4F3F8B" transform="translate(0,0)"/>
<path d="" fill="#4C448B" transform="translate(0,0)"/>
<path d="" fill="#4D408A" transform="translate(0,0)"/>
<path d="" fill="#4F418B" transform="translate(0,0)"/>
<path d="" fill="#4F4389" transform="translate(0,0)"/>
<path d="" fill="#51428E" transform="translate(0,0)"/>
<path d="" fill="#4F428D" transform="translate(0,0)"/>
<path d="" fill="#4D408C" transform="translate(0,0)"/>
<path d="" fill="#4F428E" transform="translate(0,0)"/>
<path d="" fill="#50418D" transform="translate(0,0)"/>
<path d="" fill="#4D408C" transform="translate(0,0)"/>
<path d="" fill="#4E428C" transform="translate(0,0)"/>
<path d="" fill="#4F438B" transform="translate(0,0)"/>
<path d="" fill="#51458E" transform="translate(0,0)"/>
<path d="" fill="#52438C" transform="translate(0,0)"/>
</svg>
